<svg xmlns="http://www.w3.org/2000/svg" viewBox="0 0 240 200">
  <defs>
    <radialGradient id="coinGold" cx="0.35" cy="0.3" r="1">
      <stop offset="0" stop-color="#ffe9a3"/>
      <stop offset="0.5" stop-color="#f5c542"/>
      <stop offset="1" stop-color="#b8860b"/>
    </radialGradient>
    <linearGradient id="coinEdge" x1="0" y1="0" x2="0" y2="1">
      <stop offset="0" stop-color="#d9a520"/>
      <stop offset="1" stop-color="#8a6508"/>
    </linearGradient>
  </defs>
  <ellipse cx="120" cy="182" rx="70" ry="9" fill="#000" opacity="0.3"/>
  <ellipse cx="120" cy="104" rx="72" ry="72" fill="url(#coinEdge)"/>
  <circle cx="120" cy="100" r="70" fill="url(#coinGold)"/>
  <circle cx="120" cy="100" r="58" fill="none" stroke="#8a6508" stroke-width="2" stroke-dasharray="4 3"/>
  <text x="120" y="66" text-anchor="middle" font-family="Georgia, serif" font-weight="700" font-size="12" fill="#6b4e06" letter-spacing="2">★ DONALD J. TRUMP ★</text>
  <g transform="translate(120 102)">
    <path d="M-16 -18 C-16 -30 -6 -36 0 -36 C10 -36 16 -30 16 -20 C16 -14 14 -8 14 -2 C14 8 8 16 0 16 C-8 16 -14 8 -14 -2 C-14 -8 -16 -12 -16 -18 Z" fill="#c9a04a"/>
    <path d="M-16 -20 C-20 -26 -12 -38 0 -38 C12 -38 20 -28 16 -20 C12 -26 6 -28 0 -28 C-6 -28 -12 -26 -16 -20 Z" fill="#8a6508"/>
  </g>
  <text x="120" y="146" text-anchor="middle" font-family="Georgia, serif" font-weight="700" font-size="11" fill="#6b4e06" letter-spacing="1">IN GOD WE TRUST</text>
</svg>
