<svg xmlns="http://www.w3.org/2000/svg" viewBox="0 0 240 200">
  <ellipse cx="125" cy="186" rx="85" ry="8" fill="#000" opacity="0.25"/>
  <rect x="36" y="18" width="6" height="168" rx="3" fill="#c9a04a"/>
  <circle cx="39" cy="16" r="7" fill="#ffd968"/>
  <g>
    <path d="M42 28 C90 20 140 36 210 28 L210 118 C140 126 90 110 42 118 Z" fill="#ffffff"/>
    <g fill="#e0162b">
      <path d="M42 28 C90 20 140 36 210 28 L210 41 C140 49 90 33 42 41 Z"/>
      <path d="M42 54 C90 46 140 62 210 54 L210 67 C140 75 90 59 42 67 Z"/>
      <path d="M42 80 C90 72 140 88 210 80 L210 93 C140 101 90 85 42 93 Z"/>
      <path d="M42 106 C90 98 140 114 210 106 L210 118 C140 126 90 110 42 118 Z"/>
    </g>
    <path d="M42 28 C70 23 95 27 112 31 L112 80 C95 76 70 72 42 77 Z" fill="#1e3fa0"/>
    <g fill="#ffffff" font-family="Arial" font-size="9">
      <text x="52" y="40">★</text><text x="68" y="43">★</text><text x="84" y="45">★</text><text x="98" y="47">★</text>
      <text x="52" y="56">★</text><text x="68" y="59">★</text><text x="84" y="61">★</text><text x="98" y="63">★</text>
      <text x="52" y="72">★</text><text x="68" y="75">★</text><text x="84" y="77">★</text>
    </g>
  </g>
</svg>
