<svg xmlns="http://www.w3.org/2000/svg" viewBox="0 0 240 200">
  <defs>
    <linearGradient id="mugBody" x1="0" y1="0" x2="1" y2="0">
      <stop offset="0" stop-color="#f4f6fb"/>
      <stop offset="0.5" stop-color="#ffffff"/>
      <stop offset="1" stop-color="#d8dde8"/>
    </linearGradient>
    <linearGradient id="goldRing" x1="0" y1="0" x2="0" y2="1">
      <stop offset="0" stop-color="#ffd968"/>
      <stop offset="1" stop-color="#c9a04a"/>
    </linearGradient>
  </defs>
  <ellipse cx="120" cy="182" rx="70" ry="9" fill="#000" opacity="0.25"/>
  <path d="M160 70 C185 70 195 82 195 100 C195 118 185 130 160 130 L160 116 C176 116 181 110 181 100 C181 90 176 84 160 84 Z" fill="url(#goldRing)"/>
  <rect x="60" y="42" width="104" height="134" rx="14" fill="url(#mugBody)"/>
  <ellipse cx="112" cy="42" rx="52" ry="10" fill="#e8ecf4"/>
  <ellipse cx="112" cy="42" rx="44" ry="7" fill="#5a4a3a" opacity="0.85"/>
  <rect x="60" y="160" width="104" height="8" fill="url(#goldRing)" opacity="0.9"/>
  <text x="112" y="105" text-anchor="middle" font-family="Arial Black, Arial" font-weight="900" font-size="18" fill="#c9a04a">TRUMP</text>
  <text x="112" y="124" text-anchor="middle" font-family="Arial" font-weight="700" font-size="10" fill="#1e2f5e">★ ★ ★</text>
</svg>
