<svg xmlns="http://www.w3.org/2000/svg" viewBox="0 0 240 200">
  <defs>
    <linearGradient id="teeNavy" x1="0" y1="0" x2="0" y2="1">
      <stop offset="0" stop-color="#1e2f5e"/>
      <stop offset="1" stop-color="#0d1834"/>
    </linearGradient>
  </defs>
  <ellipse cx="120" cy="186" rx="75" ry="8" fill="#000" opacity="0.25"/>
  <path d="M85 30 L60 42 L30 70 L52 96 L68 84 L68 180 L172 180 L172 84 L188 96 L210 70 L180 42 L155 30 C155 30 145 46 120 46 C95 46 85 30 85 30 Z" fill="url(#teeNavy)"/>
  <path d="M85 30 C85 30 95 46 120 46 C145 46 155 30 155 30 L148 26 C148 26 140 38 120 38 C100 38 92 26 92 26 Z" fill="#0a1228"/>
  <text x="120" y="105" text-anchor="middle" font-family="Arial Black, Arial" font-weight="900" font-size="26" fill="#ff3b50">TRUMP</text>
  <text x="120" y="128" text-anchor="middle" font-family="Arial Black, Arial" font-weight="900" font-size="20" fill="#ffffff">47</text>
  <g fill="#ffd968">
    <path d="M95 140 l3.5 7 8 1 -5.8 5.5 1.4 8 -7.1 -3.8 -7.1 3.8 1.4 -8 -5.8 -5.5 8 -1 Z" transform="scale(0.6) translate(63 93)"/>
    <path d="M120 138 l3.5 7 8 1 -5.8 5.5 1.4 8 -7.1 -3.8 -7.1 3.8 1.4 -8 -5.8 -5.5 8 -1 Z" transform="scale(0.6) translate(80 93)"/>
    <path d="M145 140 l3.5 7 8 1 -5.8 5.5 1.4 8 -7.1 -3.8 -7.1 3.8 1.4 -8 -5.8 -5.5 8 -1 Z" transform="scale(0.6) translate(97 93)"/>
  </g>
</svg>
